# xmcd CD database file
#
# Track frame offsets:
#	183
#	11283
#	24163
#	38568
#	48525
#	57428
#	71450
#	83233
#	96403
#	111118
#	121828
#	135855
#	148278
#	160903
#	171370
#	184435
#	196328
#	208725
#	222795
#	233255
#	246365
#	259675
#	274050
#	287133
#	300043
#
# Disc length: 4297 seconds
#
# Revision: 5
# Processed by: cddbd v1.5.2PL0 Copyright (c) Steve Scherf et al.
# Submitted via: CDex 1.70beta2
#
DISCID=5c10c719
DTITLE=Jean Ferrat - Les Années Barclay - Cd 12
DYEAR=1960
DGENRE=Acoustique
TTITLE0=Jean Ferrat - La Fête Aux Copains
TTITLE1=Jean Ferrat - Les Nomades
TTITLE2=Jean Ferrat - L'homme A L'oreille Coupée
TTITLE3=Jean Ferrat - Les Noctambules
TTITLE4=Jean Ferrat/ Ma Môme
TTITLE5=Jean Ferrat - J'entends, J'entends
TTITLE6=Jean Ferrat - Deux Enfants Au Soleil
TTITLE7=Jean Ferrat - Quatre Cents Enfants Noirs
TTITLE8=Jean Ferrat - Nuit Et Brouillard
TTITLE9=Jean Ferrat - Nous Dormirons Ensemble
TTITLE10=Jean Ferrat - La Montagne
TTITLE11=Jean Ferrat - C'est Beau La Vie
TTITLE12=Jean Ferrat - Les Belles Etrangères
TTITLE13=Jean Ferrat - Au Bout De Mon Age
TTITLE14=Jean Ferrat - Potemkine
TTITLE15=Jean Ferrat - Je Ne Chante Pas Pour Passer Le Temps
TTITLE16=Jean Ferrat - Le Sabre Et Le Goupillon
TTITLE17=Jean Ferrat - Que Serai-Je Sans Toi
TTITLE18=Jean Ferrat - On Ne Voit Pas Le Temps Passer
TTITLE19=Jean Ferrat - En Groupe, En Ligue, En Procession
TTITLE20=Jean Ferrat - C'est Toujours La Première Fois
TTITLE21=Jean Ferrat - Maria
TTITLE22=Jean Ferrat - C'est Si Peu Dire Que Je T'aime
TTITLE23=Jean Ferrat - Cuba Si
TTITLE24=Jean Ferrat - Un Jour Un Jour
EXTD=YEAR: 1960
EXTT0=Medley
EXTT1=Medley
EXTT2=Medley
EXTT3=Medley
EXTT4=Medley
EXTT5=Medley
EXTT6=Medley
EXTT7=Medley
EXTT8=Medley
EXTT9=Medley
EXTT10=Medley
EXTT11=Medley
EXTT12=Medley
EXTT13=Medley
EXTT14=Medley
EXTT15=Medley
EXTT16=Medley
EXTT17=Medley
EXTT18=Medley
EXTT19=Medley
EXTT20=Medley
EXTT21=Medley
EXTT22=Medley
EXTT23=Medley
EXTT24=Medley
PLAYORDER=
